<svg xmlns="http://www.w3.org/2000/svg" width="1200" height="630" viewBox="0 0 1200 630">
  <rect width="1200" height="630" fill="#141b1f"/>
  <path d="M151 132c8 60 46 98 106 106-60 8-98 46-106 106-8-60-46-98-106-106 60-8 98-46 106-106Z" fill="#d6a63f"/>
  <path d="M248 111c3 20 15 32 35 35-20 3-32 15-35 35-3-20-15-32-35-35 20-3 32-15 35-35Z" fill="#82bfd4"/>
  <text x="64" y="438" fill="#f2f3ef" font-family="ui-monospace, SFMono-Regular, Menlo, monospace" font-size="92" font-weight="700">StellarStay</text>
  <text x="68" y="510" fill="#aab5b8" font-family="ui-monospace, SFMono-Regular, Menlo, monospace" font-size="30">Data / AI / Engineering / Notes worth keeping</text>
</svg>
